<svg xmlns="http://www.w3.org/2000/svg" id="facebook" width="31.562" height="31.562" viewBox="0 0 31.562 31.562">
    <defs>
        <style>
            .cls-1{fill:#3b5998}.cls-2{fill:#fff}
        </style>
    </defs>
    <path id="Path_221" d="M15.781 31.562A15.783 15.783 0 0 1 0 15.781 15.783 15.783 0 0 1 15.781 0a15.783 15.783 0 0 1 15.781 15.781 15.783 15.783 0 0 1-15.781 15.781z" class="cls-1" data-name="Path 221"/>
    <path id="f" d="M352.833 177.893v-12.224h4.1l.615-4.763h-4.719v-3.043c0-1.379.382-2.32 2.361-2.32h2.522v-4.258a34.22 34.22 0 0 0-3.677-.186c-3.636 0-6.126 2.219-6.126 6.3v3.513H343.8v4.763h4.113v12.221z" class="cls-2" transform="translate(-332.949 -146.331)"/>
</svg>
