<svg xmlns="http://www.w3.org/2000/svg" id="insta" width="31.562" height="31.562" viewBox="0 0 31.562 31.562">
    <defs>
        <style>
            .cls-1{fill:url(#radial-gradient)}.cls-2{fill:#fff}
        </style>
        <radialGradient id="radial-gradient" cx=".291" cy=".947" r=".987" gradientTransform="rotate(-66.28 .29 .947)">
            <stop offset="0" stop-color="#faab49"/>
            <stop offset=".137" stop-color="#f97e2f"/>
            <stop offset=".492" stop-color="#de376d"/>
            <stop offset=".847" stop-color="#b52f8f"/>
            <stop offset="1" stop-color="#a53eb8"/>
        </radialGradient>
    </defs>
    <path id="Path_218" d="M15.781 31.562A15.783 15.783 0 0 1 0 15.781 15.783 15.783 0 0 1 15.781 0a15.783 15.783 0 0 1 15.781 15.781 15.783 15.783 0 0 1-15.781 15.781z" class="cls-1" data-name="Path 218"/>
    <g id="Group_115" data-name="Group 115" transform="translate(5.006 5.009)">
        <path id="Path_219" d="M169.375 160.641c2.875 0 3.216.009 4.352.063a5.91 5.91 0 0 1 2 .372 3.563 3.563 0 0 1 2.042 2.042 5.992 5.992 0 0 1 .372 2c.051 1.136.063 1.477.063 4.352s-.009 3.216-.063 4.352a5.911 5.911 0 0 1-.372 2 3.563 3.563 0 0 1-2.042 2.042 5.992 5.992 0 0 1-2 .372c-1.136.05-1.477.063-4.352.063s-3.216-.009-4.352-.063a5.91 5.91 0 0 1-2-.372 3.563 3.563 0 0 1-2.042-2.042 5.992 5.992 0 0 1-.372-2c-.051-1.136-.063-1.477-.063-4.352s.009-3.216.063-4.352a5.911 5.911 0 0 1 .372-2 3.562 3.562 0 0 1 2.042-2.042 5.992 5.992 0 0 1 2-.372c1.136-.054 1.477-.063 4.352-.063m0-1.941c-2.926 0-3.292.013-4.441.066a7.918 7.918 0 0 0-2.616.5 5.2 5.2 0 0 0-1.906 1.24 5.3 5.3 0 0 0-1.244 1.909 7.965 7.965 0 0 0-.5 2.617c-.054 1.149-.066 1.515-.066 4.441s.013 3.292.066 4.441a7.918 7.918 0 0 0 .5 2.616 5.527 5.527 0 0 0 3.153 3.147 7.966 7.966 0 0 0 2.616.5c1.149.054 1.515.066 4.441.066s3.292-.013 4.441-.066a7.919 7.919 0 0 0 2.617-.5 5.527 5.527 0 0 0 3.147-3.153 7.965 7.965 0 0 0 .5-2.616c.054-1.149.066-1.515.066-4.441s-.013-3.292-.066-4.441a7.919 7.919 0 0 0-.5-2.616 5.527 5.527 0 0 0-3.153-3.147 7.965 7.965 0 0 0-2.616-.5c-1.146-.05-1.512-.063-4.438-.063z" class="cls-2" data-name="Path 219" transform="translate(-158.6 -158.7)"/>
        <path id="Path_220" d="M330.233 324.7a5.533 5.533 0 1 0 5.533 5.533 5.533 5.533 0 0 0-5.533-5.533zm0 9.125a3.592 3.592 0 1 1 3.592-3.592 3.592 3.592 0 0 1-3.592 3.592z" class="cls-2" data-name="Path 220" transform="translate(-319.458 -319.461)"/>
        <ellipse id="Ellipse_10" cx="1.294" cy="1.294" class="cls-2" data-name="Ellipse 10" rx="1.294" ry="1.294" transform="translate(15.232 3.727)"/>
    </g>
</svg>
