<svg xmlns="http://www.w3.org/2000/svg" id="twitter" width="31.562" height="31.562" viewBox="0 0 31.562 31.562">
    <defs>
        <style>
            .cls-1{fill:#00aced}.cls-2{fill:#fff}.cls-3{fill:none}
        </style>
    </defs>
    <g id="Dark_Blue">
        <path id="Path_215" d="M15.781 0a15.783 15.783 0 0 1 15.781 15.781 15.783 15.783 0 0 1-15.781 15.781A15.783 15.783 0 0 1 0 15.781 15.783 15.783 0 0 1 15.781 0z" class="cls-1" data-name="Path 215"/>
    </g>
    <g id="Logo_FIXED">
        <path id="Path_216" d="M193.9 262.131a11.44 11.44 0 0 0 11.517-11.517c0-.174 0-.35-.013-.524a8.228 8.228 0 0 0 2.02-2.1 8.04 8.04 0 0 1-2.323.638 4.057 4.057 0 0 0 1.78-2.238 8.1 8.1 0 0 1-2.569.982 4.05 4.05 0 0 0-6.9 3.69 11.5 11.5 0 0 1-8.342-4.229 4.051 4.051 0 0 0 1.253 5.4 4.026 4.026 0 0 1-1.837-.5v.051a4.048 4.048 0 0 0 3.248 3.967 4.064 4.064 0 0 1-1.827.069 4.056 4.056 0 0 0 3.781 2.812 8.109 8.109 0 0 1-5.025 1.736 7.546 7.546 0 0 1-.963-.06 11.432 11.432 0 0 0 6.2 1.821" class="cls-2" data-name="Path 216" transform="translate(-181.776 -238.334)"/>
        <path id="Path_217" d="M15.781 0a15.783 15.783 0 0 1 15.781 15.781 15.783 15.783 0 0 1-15.781 15.781A15.783 15.783 0 0 1 0 15.781 15.783 15.783 0 0 1 15.781 0z" class="cls-3" data-name="Path 217"/>
    </g>
</svg>
